<svg id="Layer_1" data-name="Layer 1" xmlns="http://www.w3.org/2000/svg" viewBox="0 0 551.44 328.26"><defs><style>.cls-1{fill:#006400;}</style></defs><title>Massachusetts</title><path class="cls-1" d="M531.27,319.22c1.1.47,3.21.25,4.57.18.13-2.57-.75-3.46-1.48-5.57-.36-1-1.13-5.9-.33-6.91,1.81-2.3,3.62,1.29,4.77,1.89,2,1,4.34.94,6.46,1.38.05-2.67,1.21-3.95,1.5-.6a43.7,43.7,0,0,1,.17,6.24c-2.06,1.46-3.22,2.66-1.37,5,1.68,2.13,2.75,2.53,2.66,5.71-.07,2.56-1.54,4-1.67,6.48a13.63,13.63,0,0,0,0,4c.5,1.53,1.16,2,1.29,3.76a21.17,21.17,0,0,1,0,6.27c-.46,2-3.82,2.09-3.53,4.16a8.4,8.4,0,0,0,3.79-.34c1.45-.65,2.14-1.5,3.73-1.92,1.2-.32,2.63-.23,3.76-.85s1.83-2,2.94-2.72c2.33-1.44,5.79-.54,8.41-1.62,3-1.25,4.48-2.83,7.88-3,.49-1.55,0-3.33.82-4.84a30.2,30.2,0,0,0,2.41-4.13c.67-1.78,2.93-7.6,4.76-8s2.06,2,3.19,2.67c1.59.94,3.39-.29,4.56-1.46,1.49-1.5,1.36-2.61,3.72-2.67,1.76,0,3.55,1,5.12.05,1-.58,1.23-1.61,2.46-2.15a14.61,14.61,0,0,1,4-1c.51,1.88-1.15,2-1.9,3.27s-.24,2.53.51,3.79c1.78-.09,2.9-3.81,4.31-5a78.91,78.91,0,0,1,7.55-5.76,23.76,23.76,0,0,1,7.32-3c2.41-.61,4.86-.82,7.25-1.53,2.2-.66,4.29-1.56,6.62-1.66,2-.09,4.19-.08,6.27-.16,3.61-.14,5.8-2.62,9.17-2.33,1-2.93.25-7.26.25-10.39a43.87,43.87,0,0,0-.84-9c-.51-2.51-.73-5.63-2-7.79-2-3.29-3,.07-5.46.43-.53-1.54-1.31-6.83-.46-8.35.95-1.69,1.06,0,2.14.38s3,.07,4.11,0c.3-3.52-2.06-7.11-3.86-9.94-2-3.09-1.69-6.8-3.79-10a78.85,78.85,0,0,1-4.83-9.16,30.63,30.63,0,0,0-1.56-3.66c-.87-1.34-2.21-2.17-3.35-3.35a77,77,0,0,0-5.6-5.86c-5.23-4.4-10.52-5.27-17.37-5.5-3.12-.11-6.76-.44-9.85,0s-3.28,4.22-3.31,6.89c1.35.07,3-.34,4.1.71.84.84.9,2.87,1.9,3.94s6.67,2.64,5.87-.61c-2.11-.06-3.07-.3-2.69-2.75.31-2,1.32-2.57,3.14-2.93,4.39-.86,7.59,0,9.19,4a69.94,69.94,0,0,0,4.26,8.37c2,3.5,1.88,7.32,3.65,10.72,1.61,3.1,1.94,7.31,1.76,10.81a3.71,3.71,0,0,0,1.61,0c.09-1.75-1-9.53.49-10.39,1-.59,3.62,1.5,4.56,1.8a21.08,21.08,0,0,0,5,.91c.69,3.21-2.89,1.41-3.75,3.94-.93,2.73,1.69,3.83,2.54,5.79,1,2.39,1.19,6.86,1.45,9.5.48,4.75-1.82,6.2-4.65,9.42-1.39,1.59-1.75,2-3.72,2.51a11.46,11.46,0,0,0-5,2.25c-1.72,1.51-2.69,3.33-5,3.78a40.44,40.44,0,0,0-5.19,1.13,23.94,23.94,0,0,0-7.63,4.73c-1.08.9-2.4,1.6-3.14,2.72-1.11,1.66-1,2.77-3.09,3.19-1.4.27-8.86.49-8.74-.63.22-2.2,7,.2,6.41-3.73-2.9-1.53-7.36-.46-10.64-.46-3.56,0-7.11,0-10.67,0s-6-2.18-9-3.71-3.69-4.65-6.28-6.13a6.53,6.53,0,0,0-3.11-.45c-.18-3.52,0-7.11,0-10.64,0-2.28-.2-2.89-1.72-4.55s-1.63-2-1.63-4.24c0-1.57.39-3.73,0-5.23s-1.59-2.31-2.72-3.39c-1.56-1.49-2-2-4-1.21a9.11,9.11,0,0,1-4.81,1c-2.46-.16-3.54-1.79-5.25-3.21-2.15-1.8-4.84-2.89-7.09-4.58-1-.75-3-2.74-1.62-4.09.79-.81,4-.24,5.15-.29.11-2.2,0-4.45,0-6.67,0-2.52.69-4.07,2.46-1.62.83,1.15,2.56,3.05,3,4.35.71,2.17-1.26,4-.38,6,3.61.21,5.35-.06,5.41-3.94,0-3-2-4-4.24-5.6a11.34,11.34,0,0,1-4.7-5.91c-.41-1.33,0-2.83-.73-4-1.08-1.67-3.13-2.11-4.23-3.89-1.23-2-1.67-4.39-3-6.32-.76-1.07-1.61-2.32-2.92-2.73-2.19-.68-3,.7-3.35-2.09-.28-1.93.6-3,.84-4.61.27-1.89-.85-2.43-1.94-3.71-1.7-2-3.07-4.77-5.33-6.18-1.56-1-3-.57-4.83-.83a18.05,18.05,0,0,1-5.08-1.78c-2.88-1.4-5.1-2.39-7.37-4.61-1.54-1.51-4.81-6.19-6-2.56-.56,1.67.47,3,1.66,4a29.24,29.24,0,0,1,2.78,2.83c1.31,1.38,1.7.65,1.59,3.16a8.08,8.08,0,0,0-3.74,2.15c-1-2.25-2-1.14-3.56-.29s-3.22.93-4.76,1.58-2.92,2-3-.69c0-1.63,1.32-3.09,1-5-2.16-.31-3.59,1.62-5.57.33-1.68-1.09-1.72-3.14-1.75-4.93-2.62,0-1.87,4.55-4.73,1.8-2.16-2.07-1.82-5.65-1.53-8.32a5.55,5.55,0,0,1,1.21-3.14c1.16-1.24,1.63-.66,3.2-1,3.09-.76.36-3.29.66-5.62,1.69.35,7.66,7,7.92,1.65.18-3.69-3.53-6-4.85-9-1-2.19-.26-7.7,2.58-8.35s3.58.9,4.15,3.09c.42,1.6-.37,1.59,1.46,2.1a9.85,9.85,0,0,0,2.69,0c.08-1.64.32-3.15-.75-4.42-.85-1-2.54-1.09-3-2.41-.93-2.5,1.45-2.29,3-2.76,1.72-.53,2.25-1.51,3.18-2.93s4.54-7.42,2-8.17c-2.25-.68-2.34,2.35-3.4,3.13-1.72,1.27-2.56-.91-2.46-2.72.16-3.11,4.52-6.59,7.07-7.89,4-2.05,8.43-1.84,12.45-3.61,1.77-.78,3.18-2.2,5-3.1a12.08,12.08,0,0,0,3.77-2.35c1.08-1.2,1.42-2.77,2.15-4.15.35-.66,1.44-3.15,2-3.45,2.29-1.29,2.37,2.09,2.4,3.59,4,.69,3.61-5.32,5-7.5.81-1.23,2.26-1.85,2.87-3.15.37-.78,1-4,.38-4.77-1.31-1.65-3,.61-4.1.63-2,0-1.63-1.84-1.93-3.4-.86-4.44-5.1-1-5.44,2.09s.13,6.58,0,9.81c-2.14.63-3.43-2.38-4.42-3.74-1.79-2.46-2.37-2.1-4.6-.68-1.89,1.21-3.45,1.23-5-.53-2.05-2.28-1.1-2.81,1.49-3.43a4.45,4.45,0,0,0,0-1.81c-3.64-1.16-8.07-1.41-10.7-4.6-1.4-1.7-1.07-4.12-1-6.29,3.13-.58,3.88,3.08,4.82,5.17a3.67,3.67,0,0,0,1.61,0c.24-4.57-1.7-7.35-3.53-11.27-.8-1.72-3.28-7.58-5.44-7.75-1.89-.15-1.95,2.19-4,.69s-1.08-2.16.48-3.14c3.49-2.18,5.66-3.13,4-7.6-.31-.84-1.22-3.65-1.87-4-1.34-.77-3,.72-4.25,1.11-3.45,1.11-5.86-2.78-9.88-1.44-2,.66-2.94,2.51-5,3.31-2.23.88-4.1,1.41-6,2.94-1.45,1.15-2.34,2.69-3.86,3.72a20.65,20.65,0,0,0-4.34,3.34c-1.8,2-3.45,2.56-5.64,3.66a7.09,7.09,0,0,1-3.56,1,10.45,10.45,0,0,0-4.87,1.41,16.76,16.76,0,0,0-4.61,6.06c-.91,2.3-.27,5.47-.39,8-5.11.09-13.82,7.29-13.84,12.72l-293.48,21.5-27,146,87.07-3.29c3.87-.15,14.36-2.48,17.63-.67,2.9,1.61,2.61,7.46,8.23,5.88.23-3.8-.72-5.44,2.69-6.92,2.39-1,7.12.14,9.78-.11,3.56-.34,7.11.09,10.67.2,1.54,0,3.87.53,5.35.05,2.12-.68,1.65-2.07,3.39-2.65,7.35-2.41,18.28.19,26.2-1,8.94-1.35,18.65-.33,27.4-2.1,18.15-3.68,36.93-4,55.6-5.89,2.57-.26,5.33-.85,7.92-.43-.1.69.25,1.66.15,2.35,11.27.59,19.48-3.81,29.92-5.91A124.35,124.35,0,0,1,428.55,263c-.81,0,.82,11.42.86,12.34a67.34,67.34,0,0,0,.34,6.91c.27,1.79.15,5.12,1.94,6.26s3.15-.86,5.7-.43c.31,5,1.51,9.53,2.22,14.3.37,2.46.08,5,.29,7.46.26,3.16,1.71,3.91,4.63,4.76,1.48.43,6.24,0,7.25,1,.73.73,0,2.41.46,3.35s1.46,1.42,2.29,2.06c2.75,2.15,6.37.31,10.16.08,1-1.5.8-3.29,1.37-5,.64-1.91,2.35-2.69,3-4.42,1-2.55-1-9.3,4.16-8.45.41,2.66-1.45,4.5-2.16,6.86-.78,2.58-.35,5.59-1.17,8.27-1.39,4.5-5.84,8.66-4.86,13.76,4.29-.14,5.4,3.16,9,3.68a15.79,15.79,0,0,1,.05,4.1c-.27,1.11-1.19,1.64-1.39,2.75-.47,2.63,1.9,4.39,2.48,6.62,1,4-1.64,14.25,5.2,13.2.16-3.14-1.48-6,2.25-6.32,1.59-.15,2.84,1.07,3.88-.54.59-.92-.15-3.23.31-4.37,2.6-.56,3.17,6.74,2.1,8.45-.91,1.46-2.68.08-2.43,2.82.21,2.3,1.49,1.85,3.59,1.93,3.47.13,5.2-.54,5.8-3.86.39-2.18.93-7.16,4.37-6.58a4.3,4.3,0,0,1,0,1.57l-.83.32c4.83,2,5.83-1.08,5.83-5.24,0-4-.16-7.28,1.17-10.75,1.13-2.94.9-7.87,5.52-4.49,2,1.43,4,6.74,6.24,6.1.23-4.46-1.2-9.63,5-9.11.18-3.6-.67-5.23,3.35-5.48,4.26-.26,4.68-.53,4.69-5Z" transform="translate(-107.13 -71.96)"/><path class="cls-1" d="M559.39,368c0-3,.6-6.32-2.5-7.77a6.47,6.47,0,0,0-1.41,2.75c-2,1.21-4,.46-5.53,2.19-1.38,1.54-2.38,3.36-3.88,5-2,2.13-1.86,4.13-2.88,6.48-.92,2.1-3,3.11-4.43,4.69s-1.34,4.61-2.53,5.75-5.39.75-6.9.81c-2.08.1-5,.46-3.61,3.59.84,2,3.71,1.59,5.31,2.68,2.68,1.82,3.12,5.43,7.07,6,.35-6.51,3.92-8.47,10.25-10.11,4.89-1.27,8.5-3.87,13.8-3.86,3.85,0,9.84,1.13,11.32-3.31,1.37-4.1-.23-9.16-4.42-9.94-1.71-.32-3.74,0-5.48,0,.19-1.09,1.14-1.76,1.6-2.73a7.28,7.28,0,0,0,.57-3.57c0-2.89-.62-5-4.1-4.37-.33,1.7-1.52,3.2-1.7,4.93Z" transform="translate(-107.13 -71.96)"/><path class="cls-1" d="M618.21,394.76c11,.58,21.44,4,32.58,2.86,5.06-.5,8.42-3.45,7.67-8.89-.55-4-4.37-5.83-6.56-8.9-1.57-2.21-5-14.92-8.58-12.85-.19,3.17,0,6.42,0,9.61s-1,5.85-1.06,8.51c4.76.83,1.1-7.87,6-6.82,2.38.52-4.07,8.29-4.52,8.71-2.55,2.41-4.79,2.81-8.21,2.6C633.09,389.45,616.35,388.25,618.21,394.76Z" transform="translate(-107.13 -71.96)"/></svg>